<svg width="32" height="37" viewBox="0 0 32 37" fill="none" xmlns="http://www.w3.org/2000/svg">
<path fill-rule="evenodd" clip-rule="evenodd" d="M16 36C17.0355 36 17.875 35.1097 17.875 34.0115L17.875 4.58141C17.875 3.48317 17.0355 2.59286 16 2.59286C14.9644 2.59286 14.125 3.48317 14.125 4.58141L14.125 34.0115C14.125 35.1097 14.9644 36 16 36Z" fill="#090A4A" stroke="#090A4A" stroke-linecap="round" stroke-linejoin="round"/>
<path fill-rule="evenodd" clip-rule="evenodd" d="M30.5891 15.3665C31.236 14.5089 31.1049 13.2575 30.2962 12.5714L17.1713 1.4357C16.4865 0.85469 15.5135 0.85469 14.8287 1.4357L1.70377 12.5714C0.895147 13.2575 0.764044 14.5089 1.41094 15.3665C2.05784 16.2241 3.23778 16.3631 4.0464 15.677L16 5.53509L27.9536 15.677C28.7622 16.3631 29.9422 16.2241 30.5891 15.3665Z" fill="#090A4A" stroke="#090A4A" stroke-linecap="round" stroke-linejoin="round"/>
</svg>
