<svg width="722" height="288" viewBox="0 0 722 288" fill="none" xmlns="http://www.w3.org/2000/svg">
<path d="M544.064 99.3726C532.964 109.473 525.764 121.273 546.564 124.173C567.364 127.173 545.064 136.073 545.064 152.373C545.064 168.673 549.464 185.473 555.464 186.773C561.464 188.073 564.164 169.573 588.764 168.473C613.364 167.273 616.364 153.973 616.364 149.473C616.364 144.973 620.864 146.473 625.264 152.473C629.664 158.473 657.964 147.973 669.764 136.173C681.664 124.273 708.364 122.773 715.764 124.273C723.164 125.773 727.664 113.873 705.364 109.473C683.064 105.073 637.064 94.6727 616.264 96.0727C595.464 97.5727 582.664 96.4727 577.664 94.5727C577.764 94.4727 555.064 89.3726 544.064 99.3726Z" fill="#B7FAED"/>
<path d="M705.364 109.273C683.064 104.773 637.064 94.4726 616.264 95.8726C595.464 97.3726 582.664 96.2726 577.664 94.3726C577.664 94.3726 554.964 89.2727 543.964 99.2727C543.264 99.8727 542.664 100.473 541.964 101.173C546.464 105.773 553.264 110.173 563.564 112.373C591.064 118.373 621.164 105.373 654.664 109.373C674.364 111.773 692.864 119.273 706.564 123.673C710.564 123.473 713.864 123.673 715.764 124.073C723.164 125.573 727.564 113.773 705.364 109.273Z" fill="#DBFDF6"/>
<path d="M695.064 124.873C694.564 123.073 693.164 121.473 691.864 119.873C686.664 113.373 653.064 117.373 631.964 114.173C610.864 110.973 604.164 116.373 593.864 119.373C583.564 122.373 571.164 110.373 555.764 108.673C546.864 107.673 539.064 110.073 533.964 112.273C532.064 117.773 534.764 122.373 546.664 124.073C567.464 127.073 545.164 135.973 545.164 152.273C545.164 168.573 549.564 185.373 555.564 186.673C561.564 187.973 564.264 169.473 588.864 168.373C613.464 167.173 616.464 153.873 616.464 149.373C616.464 144.873 620.964 146.373 625.364 152.373C629.864 158.273 658.064 147.873 669.864 136.073C675.864 129.873 685.764 126.473 695.064 124.873Z" fill="#69D5C1"/>
<path d="M133.064 168.173C133.064 168.173 136.064 269.373 170.864 282.973C205.664 296.573 175.364 275.373 185.964 245.173C196.564 214.973 190.464 172.673 173.864 159.073C157.264 145.473 136.064 154.573 133.064 168.173Z" fill="#B7FAED"/>
<path d="M173.664 158.873C157.364 145.573 136.764 153.973 133.064 167.173C136.564 167.473 140.264 169.273 143.064 174.073C150.064 186.373 142.064 212.373 158.064 248.373C167.764 270.273 177.864 282.073 186.764 286.573C191.864 283.973 178.064 266.873 185.764 244.973C196.264 214.773 190.264 172.473 173.664 158.873Z" fill="#69D5C1"/>
<path d="M582.964 112.073C585.764 111.073 586.564 107.572 584.464 105.472C572.064 92.7725 536.164 56.6725 468.764 34.1725C388.564 7.47247 239.764 -4.7275 149.364 3.5725C58.9638 11.8725 33.7639 31.1725 21.8639 59.3725C10.4639 86.3725 19.5639 107.972 16.3639 121.472C16.1639 122.472 15.4639 123.372 14.5639 123.972C10.0639 126.672 -3.93614 136.672 1.06386 152.872C6.96386 172.172 176.064 183.773 176.064 183.773L232.964 185.273L323.464 183.773C343.964 183.273 355.764 188.472 407.564 175.172C407.664 175.172 407.864 175.072 407.964 175.072L582.964 112.073Z" fill="#A5F9E8"/>
<path d="M8.06396 146.473C8.06396 146.473 15.064 125.373 46.064 122.373" stroke="#DBFDF6" stroke-width="14" stroke-miterlimit="10" stroke-linecap="round"/>
<path d="M21.064 160.373C21.064 160.373 62.164 163.473 109.064 139.373" stroke="#69D5C1" stroke-width="8.4543" stroke-miterlimit="10" stroke-linecap="round" stroke-linejoin="round"/>
<path d="M574.064 108.373C574.064 108.373 574.064 105.373 570.064 106.373C540.064 109.373 506.864 119.373 492.064 124.373C451.064 138.173 364.064 152.373 281.564 147.873C199.064 143.373 139.064 154.373 112.064 162.373C85.0638 170.373 15.3638 155.473 15.3638 155.473C9.46377 154.573 4.86377 154.173 1.36377 154.073C13.4638 172.673 175.764 183.773 175.764 183.773L232.664 185.273L323.164 183.773C343.664 183.273 355.464 188.473 407.264 175.173C407.364 175.173 407.564 175.073 407.664 175.073L576.064 115.373C578.864 114.373 576.164 110.473 574.064 108.373Z" fill="#69D5C1"/>
<path d="M30.0638 120.373C30.0638 120.373 23.3638 61.4726 51.0638 42.3726C80.0638 22.3726 144.064 6.37257 244.064 11.3726C344.064 16.3726 467.164 32.2726 518.064 63.3726C552.064 84.1726 577.064 105.373 577.064 105.373" stroke="#DBFDF6" stroke-width="20" stroke-miterlimit="10" stroke-linecap="round"/>
<path d="M143.064 52.3724C152.664 64.2724 398.064 76.3724 449.064 76.3724C500.064 76.3724 355.064 37.3724 271.064 33.3724C187.064 29.3724 122.064 26.2724 143.064 52.3724Z" fill="#C9FBF1"/>
<path d="M126.064 127.373C135.453 127.373 143.064 119.761 143.064 110.373C143.064 100.984 135.453 93.3726 126.064 93.3726C116.675 93.3726 109.064 100.984 109.064 110.373C109.064 119.761 116.675 127.373 126.064 127.373Z" fill="#DBFDF6"/>
<path d="M123.064 125.373C130.244 125.373 136.064 119.552 136.064 112.373C136.064 105.193 130.244 99.3726 123.064 99.3726C115.884 99.3726 110.064 105.193 110.064 112.373C110.064 119.552 115.884 125.373 123.064 125.373Z" fill="#4F52C3"/>
<path d="M129.564 109.373C132.049 109.373 134.064 107.358 134.064 104.873C134.064 102.387 132.049 100.373 129.564 100.373C127.079 100.373 125.064 102.387 125.064 104.873C125.064 107.358 127.079 109.373 129.564 109.373Z" fill="#DBFDF6"/>
<path d="M177.864 144.172C159.464 155.172 249.264 223.073 284.164 227.673C319.064 232.273 357.064 232.272 329.664 210.972C302.364 189.672 278.064 151.772 257.564 144.172C237.164 136.572 200.664 130.472 177.864 144.172Z" fill="#B7FAED"/>
<path d="M180.064 152.373C180.064 152.373 201.664 181.273 244.064 205.373C288.064 230.373 316.764 225.973 335.064 223.373" stroke="#69D5C1" stroke-width="6" stroke-miterlimit="10" stroke-linecap="round" stroke-linejoin="round"/>
<path d="M207.864 153.773C194.664 161.673 258.864 210.272 283.864 213.472C308.864 216.672 335.964 216.772 316.464 201.572C296.964 186.372 279.564 159.273 264.864 153.773C250.164 148.373 224.064 144.073 207.864 153.773Z" fill="#DBFDF6"/>
</svg>
