<svg width="1073" height="716" viewBox="0 0 1073 716" fill="none" xmlns="http://www.w3.org/2000/svg">
<path d="M195.036 319.46C195.036 319.46 110.636 372.66 94.036 398.36C77.536 424.06 62.436 468.66 73.636 470.16C84.836 471.76 145.436 468.06 184.036 429.56C222.536 391.06 251.936 345.86 246.436 338.16C240.936 330.46 211.536 308.36 195.036 319.46Z" fill="#090A4A"/>
<path d="M2.23582 262.26C-13.9642 301.56 61.8358 371.76 101.836 382.36C141.836 392.96 300.836 440.76 409.436 434.26C518.036 427.76 639.236 428.36 712.636 458.36C786.036 488.36 902.136 545.46 914.736 584.86C927.336 624.26 932.136 692.56 938.936 709.76C945.736 726.96 978.636 706.76 974.136 658.16C969.636 609.56 1011.34 615.36 1040.04 613.36C1068.74 611.36 1101.84 592.96 1022.84 570.96C943.936 548.96 963.036 545.96 932.336 489.66C901.636 433.36 826.436 302.96 686.936 229.56C547.436 156.16 504.336 137.26 496.036 79.0602C490.536 40.5602 514.436 11.1602 497.836 1.96022C481.336 -7.23978 422.536 51.5602 398.736 97.4602C374.336 144.36 358.336 135.96 338.136 147.06C317.936 158.06 281.236 154.36 240.836 165.46C200.436 176.46 154.536 202.16 132.536 207.66C110.536 213.16 79.3358 207.66 53.6358 214.96C33.9358 220.46 11.4358 239.96 2.23582 262.26Z" fill="#090A4A"/>
<path d="M1039.84 612.96C1068.54 610.96 1101.64 592.56 1022.64 570.56C943.735 548.56 962.836 545.56 932.135 489.26C901.435 432.96 826.235 302.56 686.735 229.16C604.935 186.06 556.236 161.86 528.336 137.36C528.236 137.36 528.235 137.36 528.135 137.36C442.736 128.56 439.136 130.46 442.736 104.76C445.536 85.4602 488.136 46.2602 502.636 20.6602C504.236 11.7602 503.936 5.16017 497.536 1.66017C481.036 -7.53983 422.236 51.2602 398.436 97.1602C374.036 144.06 358.036 135.66 337.836 146.76C317.636 157.76 280.936 154.06 240.536 165.16C200.136 176.16 154.236 201.86 132.236 207.36C110.236 212.86 79.0355 207.36 53.3355 214.66C36.0355 219.56 16.6355 235.16 5.93555 253.96C25.6355 256.86 76.0355 244.46 107.336 242.06C150.836 238.86 268.336 218.66 317.836 235.16C367.436 251.66 505.036 288.36 556.436 310.46C607.836 332.46 725.336 383.86 778.536 396.76C831.736 409.56 888.635 483.06 918.036 525.26C947.236 567.26 953.735 608.26 996.635 617.36C1009.94 613.16 1026.34 613.86 1039.84 612.96Z" fill="#141975"/>
<path d="M764.036 370.76C760.336 312.06 668.536 289.96 619.036 297.36C569.436 304.66 501.536 381.76 475.836 396.46C450.136 411.16 352.836 427.66 299.636 420.36C246.436 413.06 277.636 354.26 259.236 345.26C240.836 336.26 161.936 280.86 123.436 280.86C95.2355 280.86 34.4355 288.76 3.93555 292.96C18.9355 330.46 70.8356 373.86 101.536 381.96C141.436 392.46 300.536 440.36 409.136 433.86C463.236 430.66 520.336 429.16 573.236 432.16C581.536 419.76 603.636 394.86 642.836 407.46C694.336 424.06 767.736 429.56 764.036 370.76Z" fill="#E6FCF8"/>
<path d="M960.435 647.96C954.935 585.56 932.935 546.96 912.735 546.96C905.535 546.96 901.935 553.76 900.735 563.86C907.635 571.06 912.435 577.96 914.535 584.36C927.135 623.76 931.935 692.06 938.735 709.26C939.635 711.46 940.935 713.06 942.535 714.06C954.335 707.56 964.035 688.76 960.435 647.96Z" fill="#E6FCF8"/>
<path d="M229.836 264.36C275.736 260.66 321.036 244.16 286.436 229.46C251.836 214.76 191.336 216.66 158.236 229.46C136.036 238.16 184.036 268.06 229.836 264.36Z" fill="#E6FCF8"/>
<path d="M500.336 3.1602C499.536 2.3602 498.636 1.66022 497.536 0.960219C481.036 -8.23978 422.236 50.5602 398.436 96.4602C374.036 143.36 358.036 134.96 337.836 146.06C317.636 157.06 280.936 153.36 240.536 164.46C200.136 175.46 154.236 201.16 132.236 206.66C110.236 212.16 79.0355 206.66 53.3355 213.96C52.5355 214.16 51.7355 214.46 50.9355 214.76C67.9355 223.26 86.5356 225.16 108.736 222.16C136.236 218.46 193.136 194.66 231.736 187.26C270.236 179.96 362.336 169.56 378.536 165.26C406.036 157.96 402.436 132.26 413.436 108.36C423.636 86.1602 463.736 21.1602 500.336 3.1602Z" fill="#4F52C3"/>
<path d="M212.936 340.06C176.636 352.66 264.236 402.56 277.536 421.56C290.836 440.56 345.936 493.76 372.536 493.76C399.136 493.76 382.036 425.36 332.636 393.06C283.336 360.76 245.336 328.86 212.936 340.06Z" fill="#141975"/>
<path d="M211.536 350.66C211.536 350.66 272.036 402.46 285.736 419.66C299.336 436.86 353.936 480.76 367.636 486.56" stroke="#090A4A" stroke-width="11.0137" stroke-miterlimit="10" stroke-linecap="round" stroke-linejoin="round"/>
</svg>
