<svg width="37" height="39" viewBox="0 0 37 39" fill="none" xmlns="http://www.w3.org/2000/svg">
<path d="M0.399902 33.4495C0.399902 30.4672 2.81757 28 5.79991 28H11.3999C11.9522 28 12.3999 28.4477 12.3999 29V33.6C12.3999 36.5823 9.98224 39 6.9999 39H5.8999C2.86234 39 0.399902 36.4871 0.399902 33.4495Z" fill="#090A4A"/>
<path d="M24.0996 29.5C24.0996 26.4624 26.562 24 29.5996 24H35.0996C35.6519 24 36.0996 24.4477 36.0996 25V29C36.0996 32.3137 33.4133 35 30.0996 35H29.5996C26.562 35 24.0996 32.5376 24.0996 29.5Z" fill="#090A4A"/>
<path d="M11.335 7.39594L34.6928 1.56V7.39594L11.335 13.1756V7.39594Z" fill="#090A4A"/>
<path d="M11.335 29.7156V6.64117L35.095 1.63562V26.2468" stroke="#090A4A" stroke-width="2" stroke-linecap="round" stroke-linejoin="round"/>
</svg>
