<svg width="37" height="39" viewBox="0 0 37 39" fill="none" xmlns="http://www.w3.org/2000/svg">
<path d="M0.400146 33.4495C0.400146 30.4672 2.81781 28 5.80015 28H11.4001C11.9524 28 12.4001 28.4477 12.4001 29V33.6C12.4001 36.5823 9.98248 39 7.00014 39H5.90015C2.86258 39 0.400146 36.4871 0.400146 33.4495Z" fill="#090A4A"/>
<path d="M24.1001 29.5C24.1001 26.4624 26.5625 24 29.6001 24H35.1001C35.6524 24 36.1001 24.4477 36.1001 25V29C36.1001 32.3137 33.4138 35 30.1001 35H29.6001C26.5625 35 24.1001 32.5376 24.1001 29.5Z" fill="#090A4A"/>
<path d="M11.3354 7.39594L34.6933 1.56V7.39594L11.3354 13.1756V7.39594Z" fill="#090A4A"/>
<path d="M11.3354 29.7156V6.64114L35.0954 1.63559V26.2467" stroke="#090A4A" stroke-width="2" stroke-linecap="round" stroke-linejoin="round"/>
</svg>
