<svg width="38" height="44" viewBox="0 0 38 44" fill="none" xmlns="http://www.w3.org/2000/svg">
<mask id="mask0" mask-type="alpha" maskUnits="userSpaceOnUse" x="-34" y="-33" width="108" height="108">
<rect x="-34" y="-33" width="108" height="108" fill="#C4C4C4"/>
</mask>
<g mask="url(#mask0)">
<path d="M0.400146 33.4495C0.400146 30.4672 2.81781 28 5.80015 28H11.4001C11.9524 28 12.4001 28.4477 12.4001 29V33.6C12.4001 36.5823 9.98248 39 7.00014 39H5.90015C2.86258 39 0.400146 36.4871 0.400146 33.4495Z" fill="#090A4A"/>
<path d="M24.1001 29.5C24.1001 26.4624 26.5625 24 29.6001 24H35.1001C35.6524 24 36.1001 24.4477 36.1001 25V29C36.1001 32.3137 33.4138 35 30.1001 35H29.6001C26.5625 35 24.1001 32.5376 24.1001 29.5Z" fill="#090A4A"/>
<path d="M11.3354 7.39594L34.6933 1.56V7.39594L11.3354 13.1756V7.39594Z" fill="#090A4A"/>
<path d="M11.3354 29.7156V6.64114L35.0954 1.63559V26.2467" stroke="#090A4A" stroke-width="2" stroke-linecap="round" stroke-linejoin="round"/>
<g filter="url(#filter0_d)">
<path d="M2.42822 4.00549L35.8227 37.4" stroke="#090A4A" stroke-width="4" stroke-linecap="round"/>
</g>
</g>
<defs>
<filter id="filter0_d" x="0.428223" y="2.00549" width="37.3945" height="41.3945" filterUnits="userSpaceOnUse" color-interpolation-filters="sRGB">
<feFlood flood-opacity="0" result="BackgroundImageFix"/>
<feColorMatrix in="SourceAlpha" type="matrix" values="0 0 0 0 0 0 0 0 0 0 0 0 0 0 0 0 0 0 127 0"/>
<feOffset dy="4"/>
<feColorMatrix type="matrix" values="0 0 0 0 1 0 0 0 0 1 0 0 0 0 1 0 0 0 1 0"/>
<feBlend mode="normal" in2="BackgroundImageFix" result="effect1_dropShadow"/>
<feBlend mode="normal" in="SourceGraphic" in2="effect1_dropShadow" result="shape"/>
</filter>
</defs>
</svg>
