<svg width="711" height="225" viewBox="0 0 711 225" fill="none" xmlns="http://www.w3.org/2000/svg">
<path d="M438.286 158.064C418.086 151.864 366.686 142.064 312.286 163.664C257.886 185.264 243.086 199.564 231.386 203.564C219.686 207.564 233.386 215.464 259.886 220.264C286.386 225.064 337.686 226.764 372.386 221.764C407.086 216.864 453.386 194.864 452.786 186.864C452.186 178.864 458.886 164.364 438.286 158.064Z" fill="#661F66"/>
<path d="M129.686 55.3639C129.686 55.3639 71.6858 61.9639 32.0858 79.2639C-7.51422 96.5639 28.5858 98.3639 40.0858 97.1639C51.5858 95.9639 133.286 83.8639 140.086 82.9639C151.986 81.4639 177.486 77.3639 176.386 66.2639C175.486 57.1639 145.786 52.7639 129.686 55.3639Z" fill="#8535A9"/>
<path d="M18.3857 90.4639C18.3857 90.4639 43.8857 75.9639 73.7857 68.7639C103.686 61.5639 129.886 55.3639 150.986 58.4639" stroke="#AD6CEA" stroke-width="4.1105" stroke-miterlimit="10" stroke-linecap="round"/>
<path d="M37.4858 93.6639C37.4858 93.6639 108.186 84.4639 128.986 81.5639C149.786 78.6639 184.786 75.0639 169.286 65.7639" stroke="#6E2472" stroke-width="8" stroke-miterlimit="10" stroke-linecap="round"/>
<path d="M120.186 80.4639C102.186 73.7639 57.2859 54.7639 139.286 26.7639C221.286 -1.23606 274.286 -3.23606 354.286 2.76394C434.286 8.76394 435.286 37.7639 495.286 35.7639C555.286 33.7639 604.286 24.7639 647.286 44.7639C690.286 64.7639 685.586 88.2639 699.986 97.0639C714.386 105.864 712.286 117.764 704.286 123.764C696.286 129.764 664.286 141.764 607.286 141.764C550.286 141.764 516.286 174.764 466.286 184.764C416.286 194.764 312.286 193.764 237.286 153.764C162.286 113.764 138.086 87.1639 120.186 80.4639Z" fill="#8535A9"/>
<path d="M524.286 134.764C508.286 142.764 507.286 162.764 474.286 163.764C441.286 164.764 429.286 155.764 423.286 156.764C417.286 157.764 406.286 182.764 390.286 185.764C374.286 188.764 328.286 175.764 310.286 137.764C292.286 99.764 294.286 128.764 237.286 112.764C180.286 96.764 152.286 86.764 161.286 67.764C170.286 48.764 156.786 65.764 142.486 67.764C129.986 69.564 110.786 71.264 100.186 73.064C106.386 77.364 114.486 80.564 119.986 82.664C137.886 89.364 162.086 115.964 237.086 155.964C312.086 195.964 416.086 196.964 466.086 186.964C496.986 180.764 521.686 165.864 549.586 155.364C553.286 153.164 556.786 151.264 561.186 149.664C566.086 147.864 571.686 147.164 577.786 146.964C586.986 145.064 596.586 143.964 607.086 143.964C638.386 143.964 662.086 140.364 678.486 136.064C686.986 133.464 694.986 130.464 701.686 127.464C702.686 126.864 703.486 126.364 704.186 125.864C708.286 122.764 710.886 118.064 710.386 112.964C704.586 115.464 694.586 119.864 677.386 127.664C635.486 146.564 540.286 126.764 524.286 134.764Z" fill="#6E2472"/>
<path d="M699.886 97.264C685.586 88.564 690.186 64.964 647.186 44.964C604.186 24.964 555.186 33.964 495.186 35.964C435.186 37.964 434.186 8.96396 354.186 2.96396C274.186 -3.03604 221.186 -1.03605 139.186 26.964C124.886 31.864 114.486 36.464 107.086 40.764C117.486 44.164 131.486 46.564 143.286 41.764C165.286 32.764 209.286 14.764 284.286 15.764C359.286 16.764 392.986 35.164 462.186 44.464C531.386 53.764 591.286 34.764 620.286 48.764C649.286 62.764 667.986 84.264 688.586 95.064C694.786 98.264 699.386 99.364 702.586 99.064C701.686 98.464 700.786 97.864 699.886 97.264Z" fill="#AD6CEA"/>
<path d="M629.286 105.764C637.57 105.764 644.286 99.0482 644.286 90.7639C644.286 82.4796 637.57 75.7639 629.286 75.7639C621.002 75.7639 614.286 82.4796 614.286 90.7639C614.286 99.0482 621.002 105.764 629.286 105.764Z" fill="#C56BEB" stroke="#AC5EAB" stroke-width="4" stroke-miterlimit="10"/>
<path d="M633.386 102.164C637.86 102.164 641.486 98.5374 641.486 94.0639C641.486 89.5904 637.86 85.9639 633.386 85.9639C628.913 85.9639 625.286 89.5904 625.286 94.0639C625.286 98.5374 628.913 102.164 633.386 102.164Z" fill="#F1DAFA"/>
<path d="M624.086 87.3639C625.633 87.3639 626.886 86.1103 626.886 84.5639C626.886 83.0175 625.633 81.7639 624.086 81.7639C622.54 81.7639 621.286 83.0175 621.286 84.5639C621.286 86.1103 622.54 87.3639 624.086 87.3639Z" fill="#F1DAFA"/>
<path d="M639.086 102.364C640.633 102.364 641.886 101.11 641.886 99.5639C641.886 98.0175 640.633 96.7639 639.086 96.7639C637.54 96.7639 636.286 98.0175 636.286 99.5639C636.286 101.11 637.54 102.364 639.086 102.364Z" fill="#C56BEB"/>
<path d="M672.786 111.764C672.786 111.764 643.786 113.464 637.286 116.664" stroke="#D176D3" stroke-miterlimit="10" stroke-linecap="round" stroke-linejoin="round"/>
<path d="M670.286 114.164C670.286 114.164 649.786 117.264 640.286 122.464" stroke="#D176D3" stroke-miterlimit="10" stroke-linecap="round" stroke-linejoin="round"/>
<path d="M671.786 118.364C671.786 118.364 647.486 124.864 640.886 131.364" stroke="#D176D3" stroke-miterlimit="10" stroke-linecap="round" stroke-linejoin="round"/>
<path d="M674.286 120.464C674.286 120.464 659.286 128.464 657.386 131.364" stroke="#D176D3" stroke-miterlimit="10" stroke-linecap="round" stroke-linejoin="round"/>
<path d="M555.786 62.264C555.786 62.264 550.786 70.264 559.786 71.264C568.786 72.264 586.786 78.264 573.786 78.264C560.786 78.264 542.386 80.264 536.086 75.764C529.786 71.264 550.786 61.264 555.786 62.264Z" fill="#5C2373"/>
<path d="M415.786 144.264C396.186 136.464 345.786 122.264 289.786 139.264C233.786 156.264 217.786 169.264 205.786 172.264C193.786 175.264 206.786 184.264 232.786 191.264C258.786 198.264 309.786 204.264 344.786 202.264C379.786 200.264 427.786 182.264 427.786 174.264C427.786 166.264 435.786 152.264 415.786 144.264Z" fill="#8535A9"/>
<path d="M235.286 165.864C253.586 157.764 292.686 143.564 307.186 140.964C321.686 138.364 345.986 135.264 357.786 147.764C369.586 160.364 364.086 176.864 325.586 177.564C287.086 178.264 221.086 172.064 235.286 165.864Z" fill="#AD6CEA"/>
<path d="M299.786 149.264C303.986 152.664 281.786 162.664 266.786 160.464C251.786 158.264 294.786 145.264 299.786 149.264Z" fill="#BC95F9"/>
<path d="M315.286 143.064C320.786 145.264 312.686 150.764 307.186 148.464C301.686 146.164 309.886 140.864 315.286 143.064Z" fill="#BC95F9"/>
<path d="M263.286 195.764C263.286 195.764 284.286 200.864 342.286 198.764C396.286 196.764 429.286 180.764 429.286 161.764" stroke="#6E2472" stroke-width="8" stroke-miterlimit="10" stroke-linecap="round"/>
<path d="M117.086 42.664C117.086 42.664 58.7856 46.664 18.5856 62.164C-21.6144 77.664 14.1857 81.164 25.7857 80.464C37.3857 79.764 119.486 71.364 126.386 70.764C138.386 69.764 163.986 66.864 163.386 55.764C162.786 46.564 133.286 40.764 117.086 42.664Z" fill="#8535A9"/>
<path d="M4.28564 72.764C4.28564 72.764 30.3856 59.464 60.6856 53.564C90.8856 47.764 117.286 42.764 138.286 46.764" stroke="#AD6CEA" stroke-width="4.1105" stroke-miterlimit="10" stroke-linecap="round"/>
<path d="M23.2856 76.764C23.2856 76.764 94.2856 70.764 115.286 68.764C136.286 66.764 171.286 64.764 156.286 54.764" stroke="#6E2472" stroke-width="8" stroke-miterlimit="10" stroke-linecap="round"/>
</svg>
