<svg width="362" height="626" viewBox="0 0 362 626" fill="none" xmlns="http://www.w3.org/2000/svg">
<path d="M178.5 0C167.5 0 106.5 67 105.5 84C104.5 101 155.5 218.6 178.5 218.3C201.5 218 251.5 105 251.5 83C251.5 61 193.5 0 178.5 0Z" fill="#D87244"/>
<path d="M178.8 0C167.5 0 119.5 218 122.5 255C125.5 292 135.1 301.6 178.8 300.3C222.5 299 235.5 287 234.5 256C233.5 225 194.1 0 178.8 0Z" fill="#D84E4B"/>
<path d="M195.1 41.7C198.5 85.1 205 180.3 200.5 208.8C194.5 246 156.5 231.9 140.5 252C134.9 259 129 266.2 124.7 272.6C127.5 285.2 132.6 292.8 142.6 296.9C151.1 298.1 161.7 299.6 172.8 300.9C174.7 300.9 176.6 300.9 178.6 300.8C222.3 299.5 235.3 287.5 234.3 256.5C233.6 233.8 212.5 108.2 195.1 41.7Z" fill="#B12F52"/>
<path d="M193.4 348.7C193.4 348.7 192.5 440 226.5 463C260.5 486 281.5 446 316.5 465C351.5 484 326.5 525 296.5 519C266.5 513 246.5 514 249.5 543C252.5 572 291.5 559 296.5 547" stroke="#D84E4B" stroke-width="13" stroke-miterlimit="10" stroke-linecap="round" stroke-linejoin="round"/>
<path d="M182 342C182 342 191 439.5 185 472.5C179 505.5 214 515.5 220 541.5C226 567.5 197 591.5 226 612.5C255 633.5 266 594.5 258 584.5" stroke="#D84E4B" stroke-width="13" stroke-miterlimit="10" stroke-linecap="round" stroke-linejoin="round"/>
<path d="M169.6 342C169.6 342 182.5 416.3 155.5 454.6C128.5 492.9 138.9 510.7 172.7 525.3C206.5 539.9 169.5 583.9 144.5 569.9C119.5 555.9 123.5 523.9 104.5 523.9C85.5002 523.9 98.5002 547.9 107.5 534.9" stroke="#D84E4B" stroke-width="13" stroke-miterlimit="10" stroke-linecap="round" stroke-linejoin="round"/>
<path d="M157.5 339C157.5 339 177.9 413.3 126.2 454.6C74.4999 495.9 47.4999 535 59.4999 570C71.4999 605 111.1 595 106.8 570C102.5 545 80.4999 555 80.4999 566C80.4999 577 87.4999 581 87.4999 581" stroke="#D84E4B" stroke-width="13" stroke-miterlimit="10" stroke-linecap="round" stroke-linejoin="round"/>
<path d="M146.5 335.5C146.5 335.5 157.6 424.4 115.1 428.7C72.5 433 75.1 360.7 33.3 365.8C-8.5 370.9 13.7 424.2 42.1 454.6C70.5 485 59.5 511 41.5 516C23.5 521 7.5 514 6.5 485" stroke="#D84E4B" stroke-width="13" stroke-miterlimit="10" stroke-linecap="round" stroke-linejoin="round"/>
<path d="M200.5 352C200.5 352 195.5 419 239.5 417C283.5 415 267.5 341 286.5 312C305.5 283 356.5 298 344.5 347C332.5 396 309.5 424 333.5 437C357.5 450 361.1 414.3 346.3 410.7" stroke="#B12F52" stroke-width="12" stroke-miterlimit="10" stroke-linecap="round"/>
<path d="M140.5 381.1C140.5 381.1 143.5 351 131.5 331C119.5 311 128.3 280.1 147.5 271C166.5 262 200.5 262 213.5 280C226.5 298 227.5 327 213.5 356.7C207.1 370.4 212.2 392.7 212.2 392.7C212.2 392.7 190.9 342.7 175.2 344.3C159.5 345.9 145.5 355.3 140.5 381.1Z" fill="#D84E4B"/>
<path d="M178.5 339C190.65 339 200.5 329.15 200.5 317C200.5 304.85 190.65 295 178.5 295C166.35 295 156.5 304.85 156.5 317C156.5 329.15 166.35 339 178.5 339Z" fill="#F9805D"/>
<path d="M178.5 333C187.337 333 194.5 325.837 194.5 317C194.5 308.163 187.337 301 178.5 301C169.663 301 162.5 308.163 162.5 317C162.5 325.837 169.663 333 178.5 333Z" fill="#DCDFF9"/>
<path d="M178.5 329C185.127 329 190.5 323.627 190.5 317C190.5 310.373 185.127 305 178.5 305C171.873 305 166.5 310.373 166.5 317C166.5 323.627 171.873 329 178.5 329Z" fill="#6D7BC6"/>
<path opacity="0.4" d="M181 332C188.456 332 194.5 325.956 194.5 318.5C194.5 311.044 188.456 305 181 305C173.544 305 167.5 311.044 167.5 318.5C167.5 325.956 173.544 332 181 332Z" fill="#6D7BC6"/>
<path d="M178.5 325C182.918 325 186.5 321.418 186.5 317C186.5 312.582 182.918 309 178.5 309C174.082 309 170.5 312.582 170.5 317C170.5 321.418 174.082 325 178.5 325Z" fill="#3D51A8"/>
<path d="M186 311C187.933 311 189.5 309.433 189.5 307.5C189.5 305.567 187.933 304 186 304C184.067 304 182.5 305.567 182.5 307.5C182.5 309.433 184.067 311 186 311Z" fill="#DCDFF9"/>
<path d="M172 329C173.381 329 174.5 327.881 174.5 326.5C174.5 325.119 173.381 324 172 324C170.619 324 169.5 325.119 169.5 326.5C169.5 327.881 170.619 329 172 329Z" fill="#DCDFF9"/>
<path d="M175 315C175.828 315 176.5 314.328 176.5 313.5C176.5 312.672 175.828 312 175 312C174.172 312 173.5 312.672 173.5 313.5C173.5 314.328 174.172 315 175 315Z" fill="#DCDFF9"/>
<path d="M178.5 8.90002C178.5 8.90002 141.5 156 134.5 198C127.6 239.1 124 254.8 130.5 252C137.5 249 147.5 237 172.5 231" stroke="#E5734C" stroke-width="5.6863" stroke-miterlimit="10" stroke-linecap="round"/>
<path d="M122.2 109.1C122.2 109.1 114.5 96 114.5 85C114.5 74 148.5 38 157.5 28" stroke="#ED863A" stroke-width="6" stroke-miterlimit="10" stroke-linecap="round"/>
<path d="M181.5 277C181.5 277 214.5 272 214.5 318C214.5 337 191.7 354.3 202.5 384" stroke="#B12F52" stroke-width="12" stroke-miterlimit="10" stroke-linecap="round"/>
<path d="M137.5 292C137.5 292 130.5 307 137.5 321.5C144.5 336 148.4 341.4 147.9 351.7" stroke="#E5734C" stroke-width="7.9333" stroke-miterlimit="10" stroke-linecap="round"/>
<path d="M176.5 145C181.471 145 185.5 139.851 185.5 133.5C185.5 127.149 181.471 122 176.5 122C171.529 122 167.5 127.149 167.5 133.5C167.5 139.851 171.529 145 176.5 145Z" fill="#DB6565"/>
<path d="M166.8 177C173.262 177 178.5 170.284 178.5 162C178.5 153.716 173.262 147 166.8 147C160.338 147 155.1 153.716 155.1 162C155.1 170.284 160.338 177 166.8 177Z" fill="#DB6565"/>
<path d="M234.974 77.0765C239.301 76.18 241.881 70.9816 240.738 65.4654C239.595 59.9493 235.161 56.2043 230.835 57.1008C226.509 57.9973 223.928 63.1957 225.071 68.7118C226.214 74.228 230.648 77.9729 234.974 77.0765Z" fill="#EA8A63"/>
<path d="M232.209 106.626C237.834 105.461 241.185 98.6855 239.694 91.4929C238.204 84.3003 232.436 79.4143 226.812 80.5797C221.188 81.7451 217.837 88.5206 219.327 95.7132C220.817 102.906 226.585 107.792 232.209 106.626Z" fill="#EA8A63"/>
</svg>
