<svg width="1019" height="384" viewBox="0 0 1019 384" fill="none" xmlns="http://www.w3.org/2000/svg">
<path d="M58.9683 37.6482C7.29521 37.6482 -2.27951 122.413 1.21602 162.213C5.77541 213.862 14.1343 222.369 24.013 268.549C34.3476 317.008 14.8942 341.466 37.6912 355.137C60.4881 368.809 125.08 369.569 168.698 367.746C212.316 365.923 337.091 384 387.245 384C437.398 384 517.947 344.959 563.541 312.603C610.655 279.183 621.597 207.482 574.18 236.649C554.422 248.801 560.501 239.079 560.501 233.61C560.501 232.699 559.134 226.926 558.982 226.015C557.918 219.483 554.422 211.736 565.061 197.152C577.219 180.442 665.367 98.4117 697.283 81.7017C729.199 64.9918 686.645 63.4727 651.689 89.2971C616.734 115.122 499.862 154.162 440.437 160.694C358.368 169.809 362.928 157.656 288.458 151.58C195.294 143.984 168.394 160.694 134.958 145.503C101.523 130.312 95.4435 37.6482 58.9683 37.6482Z" fill="#B877BF"/>
<path d="M239.368 149.909C184.352 149.909 161.859 157.96 135.262 145.959C102.435 131.072 95.8996 41.1421 61.0962 38.2559C63.8318 39.7749 68.9991 44.9398 74.1664 63.4727C81.7654 90.8163 106.842 147.022 107.602 162.213C109.122 191.076 90.8842 233.61 86.3248 244.244C94.8357 236.801 151.676 174.518 174.473 163.732C195.446 153.858 224.778 150.82 239.368 149.909Z" fill="#A75DAF"/>
<path d="M566.277 253.51C564.757 250.017 563.541 246.523 562.477 243.029C558.526 243.636 560.198 239.231 560.806 235.585C560.198 232.699 559.894 229.965 559.438 227.078C559.438 226.926 559.438 226.775 559.286 226.623C558.678 222.977 557.31 218.875 558.222 213.407C557.614 203.533 557.31 193.203 555.942 182.113C552.903 154.77 595.913 142.617 606.096 124.388C613.391 111.324 564.909 135.326 538.009 138.516C518.859 144.44 499.71 149.757 482.08 153.858C525.85 172.239 486.031 241.358 472.353 253.662C457.155 267.486 408.522 268.701 455.332 283.436C502.141 298.172 437.246 346.934 437.246 346.934C403.658 399.191 575.7 274.626 566.277 253.51Z" fill="#A75DAF"/>
<path d="M49.3936 38.7117C5.62341 47.9781 -2.58349 124.996 0.608082 162.365C5.16747 214.014 13.5264 222.521 23.405 268.701C29.9402 299.387 24.4689 320.502 25.5328 335.237C25.6847 334.63 25.8367 333.87 25.9887 333.111C31.004 306.527 46.8099 268.55 33.1317 211.736C19.4536 154.922 11.3986 112.387 14.8942 93.8545C22.4932 54.3583 49.3936 38.7117 49.3936 38.7117Z" fill="#FCDCFF"/>
<path d="M596.976 230.876C591.961 228.749 584.21 230.268 573.572 236.801C561.413 244.244 560.501 244.244 558.982 241.206C536.944 255.333 508.372 280.702 476.912 315.641C422.2 376.405 344.69 367.29 291.497 362.733C238.304 358.176 184.503 366.227 184.503 366.227C219.155 365.467 255.63 371.999 293.777 377.164C317.942 379.595 341.499 381.873 360.8 383.089C362.016 383.089 363.384 383.089 364.599 383.089C440.285 386.886 472.657 364.1 520.683 338.731C536.337 330.072 550.927 321.11 562.933 312.603C594.697 290.12 610.047 250.017 601.992 235.433C600.624 233.61 598.952 232.091 596.976 230.876Z" fill="#FCDCFF"/>
<path d="M40.7306 332.351C53.193 344.808 84.8048 361.214 142.557 356.657C200.309 352.099 335.115 351.644 361.408 344.504C387.548 337.364 495.15 308.653 444.237 228.598C393.324 148.542 289.977 149.149 248.183 149.605C206.389 150.061 148.028 160.694 108.818 210.824C69.6068 260.954 81.7652 270.069 65.0474 288.298C48.3296 306.527 30.0921 321.718 40.7306 332.351Z" fill="#C78FCC"/>
<path d="M615.366 119.223C615.366 119.223 755.036 34.6101 817.347 14.8619C879.659 -4.88621 986.045 10.3047 1013.4 28.5337" stroke="#C78FCC" stroke-width="10" stroke-miterlimit="10" stroke-linecap="round" stroke-linejoin="round"/>
<path d="M700.323 66.5108C712.481 45.2436 717.04 17.9 721.6 20.9382C726.159 23.9764 730.719 49.8008 730.719 49.8008L700.323 66.5108Z" fill="#C78FCC"/>
<path d="M95.4434 244.244C95.4434 244.244 122.952 185 174.625 168.29C226.298 151.58 281.011 157.656 281.011 157.656" stroke="#D9B0E2" stroke-width="6" stroke-miterlimit="10" stroke-linecap="round" stroke-linejoin="round"/>
<path d="M118.24 219.939C118.24 219.939 133.438 192.595 165.354 177.404Z" fill="#B877BF"/>
<path d="M118.24 219.939C118.24 219.939 133.438 192.595 165.354 177.404" stroke="#E4C1E8" stroke-width="6" stroke-miterlimit="10" stroke-linecap="round" stroke-linejoin="round"/>
<path d="M277.819 347.542C277.819 347.542 363.08 348.15 410.042 323.237C461.715 295.893 454.116 268.55 454.116 268.55" stroke="#9C5BA5" stroke-width="6" stroke-miterlimit="10" stroke-linecap="round" stroke-linejoin="round"/>
<path d="M71.1268 294.374C60.4882 308.046 39.2111 320.198 49.8497 327.794C59.5764 334.63 90.8842 347.542 110.642 347.542C130.399 347.542 188.151 344.504 188.151 344.504" stroke="#D9B0E2" stroke-width="6" stroke-miterlimit="10" stroke-linecap="round" stroke-linejoin="round"/>
<path d="M92.0998 277.056C97.8074 277.056 102.434 272.431 102.434 266.727C102.434 261.022 97.8074 256.397 92.0998 256.397C86.3921 256.397 81.7651 261.022 81.7651 266.727C81.7651 272.431 86.3921 277.056 92.0998 277.056Z" fill="#F4D7F7"/>
<path d="M211.252 323.692C216.96 323.692 221.587 319.068 221.587 313.363C221.587 307.658 216.96 303.033 211.252 303.033C205.544 303.033 200.917 307.658 200.917 313.363C200.917 319.068 205.544 323.692 211.252 323.692Z" fill="#F4D7F7"/>
<path d="M206.693 323.237C210.805 323.237 214.14 319.904 214.14 315.793C214.14 311.682 210.805 308.35 206.693 308.35C202.58 308.35 199.246 311.682 199.246 315.793C199.246 319.904 202.58 323.237 206.693 323.237Z" fill="#4B1F7F"/>
<path d="M88.1487 276.145C92.2615 276.145 95.5957 272.812 95.5957 268.701C95.5957 264.59 92.2615 261.258 88.1487 261.258C84.0358 261.258 80.7017 264.59 80.7017 268.701C80.7017 272.812 84.0358 276.145 88.1487 276.145Z" fill="#4B1F7F"/>
<path d="M92.7079 268.549C94.3027 268.549 95.5955 267.257 95.5955 265.663C95.5955 264.069 94.3027 262.777 92.7079 262.777C91.1131 262.777 89.8203 264.069 89.8203 265.663C89.8203 267.257 91.1131 268.549 92.7079 268.549Z" fill="#F4D7F7"/>
<path d="M211.252 315.641C212.847 315.641 214.139 314.349 214.139 312.755C214.139 311.161 212.847 309.869 211.252 309.869C209.657 309.869 208.364 311.161 208.364 312.755C208.364 314.349 209.657 315.641 211.252 315.641Z" fill="#F4D7F7"/>
</svg>
