<svg width="37" height="39" viewBox="0 0 37 39" fill="none" xmlns="http://www.w3.org/2000/svg">
<ellipse cx="15.6886" cy="13.0513" rx="7.01893" ry="7.15284" fill="#090A4A"/>
<path d="M26.9354 36.2599C27.8909 36.2599 28.6246 35.1513 28.4945 33.9094C27.6212 25.5703 22.1681 19.1467 15.5709 19.1467C8.97394 19.1467 3.52045 25.5703 2.64731 33.9094C2.51721 35.1513 3.2509 36.2599 4.20648 36.2599H26.9354Z" fill="#090A4A"/>
<path d="M24.6644 7.50274C24.6644 7.50274 26.8973 9.05838 27.3254 11.7615C27.7536 14.4646 26.1001 16.5681 26.1001 16.5681" stroke="#090A4A" stroke-width="2" stroke-linecap="round"/>
<path d="M26.5519 4.85757C26.5519 4.85757 29.7216 7.28769 30.3296 11.5136C30.9372 15.7372 28.5901 19.0242 28.5901 19.0242" stroke="#090A4A" stroke-width="2" stroke-linecap="round"/>
<path d="M28.7839 2.51489C28.7839 2.51489 33.0382 5.81866 33.773 11.4356C34.5078 17.0525 31.248 21.3514 31.248 21.3514" stroke="#090A4A" stroke-width="2" stroke-linecap="round"/>
</svg>
